<svg xmlns="http://www.w3.org/2000/svg" id="Layer_1" viewBox="0 0 629 114.4">
  <path fill="#1c2b39" d="M619.4 31.9a10 10 0 0 1-6.8-2.8 9.4 9.4 0 0 1-2.7-6.7v-.1a9.4 9.4 0 0 1 5.8-8.8 9.6 9.6 0 0 1 12.6 5c.5 1.2.7 2.4.7 3.7v.1a9.4 9.4 0 0 1-5.8 8.8c-1.2.5-2.4.8-3.8.8zm0-1c1.2 0 2.4-.2 3.4-.7 1-.5 2-1.1 2.7-1.8a8 8 0 0 0 1.8-2.7c.4-1 .7-2.2.7-3.3v-.1a8 8 0 0 0-2.4-6 8 8 0 0 0-2.7-1.8c-1-.4-2.2-.7-3.4-.7s-2.4.2-3.4.7a8.8 8.8 0 0 0-5.2 7.9v.1a8 8 0 0 0 2.4 6 8 8 0 0 0 6.1 2.4zM615.6 17h4.5a4 4 0 0 1 3 1.1c.5.5.8 1.2.8 2.1v.1c0 .8-.2 1.5-.6 2-.4.5-1 .9-1.7 1l2.7 3.8H622l-2.4-3.5h-2.1v3.5h-1.9V17zm4.4 4.9c.6 0 1.1-.1 1.5-.4.4-.3.5-.7.5-1.1v-.1c0-.5-.2-.9-.5-1.2-.4-.3-.8-.4-1.5-.4h-2.5v3.2h2.5zM134 18.2h9l20.9 61L184 18h6.8l20.1 61.2 20.9-61h8.7L214.4 92h-7l-20.1-59.4L167.1 92h-6.9L134 18.2zM268.8 92.8a27.7 27.7 0 0 1-28.1-28v-.2a28.6 28.6 0 0 1 8-19.9 27.7 27.7 0 0 1 20.1-8.3c4 0 7.8.8 11.2 2.2 3.5 1.5 6.4 3.5 8.9 6.1a27.1 27.1 0 0 1 8 19.7v.2a28.6 28.6 0 0 1-8 19.9 27.7 27.7 0 0 1-20.1 8.3zm.2-7.3a20 20 0 0 0 14.4-6.2 22.3 22.3 0 0 0 5.6-14.6v-.2a22.1 22.1 0 0 0-5.7-14.9 19.5 19.5 0 0 0-14.4-6.2 18.7 18.7 0 0 0-14.3 6.2 21.6 21.6 0 0 0-5.5 14.7v.2c0 2.9.5 5.7 1.5 8.2a20.2 20.2 0 0 0 10.5 11.1c2.4 1.2 5 1.7 7.9 1.7zM307 37.4h8.1v14.1a30 30 0 0 1 8.7-11.1 21 21 0 0 1 13.4-4v8.7h-.6a21.2 21.2 0 0 0-15.2 6.3 22 22 0 0 0-4.6 7.7 32.2 32.2 0 0 0-1.7 10.8v21.6H307V37.4zM348.3 15.1h8.1v76.4h-8.1V15.1zM394.8 92.7a25.6 25.6 0 0 1-23.7-16.2 29.7 29.7 0 0 1-2.2-11.9v-.2c0-4.4.7-8.3 2.2-11.8a26.2 26.2 0 0 1 23.7-16.2 25 25 0 0 1 12.6 3.4 29 29 0 0 1 8.2 8.1V15.1h8.1v76.4h-8.1V80.6a53.2 53.2 0 0 1-3.7 4.6 23.9 23.9 0 0 1-17.1 7.5zm1.5-7.3a18.7 18.7 0 0 0 13.6-5.8 20.6 20.6 0 0 0 6-15.1v-.2c0-3.1-.5-6-1.6-8.5A19.7 19.7 0 0 0 388.9 45c-2.3.9-4.4 2.3-6.1 4.1-1.7 1.8-3.1 4-4.1 6.5-1 2.6-1.5 5.5-1.5 8.8v.2c0 3.2.5 6.1 1.5 8.7a18.5 18.5 0 0 0 10.2 10.8 23 23 0 0 0 7.4 1.3zM474.4 92.8a36.4 36.4 0 0 1-34-22.9 40.2 40.2 0 0 1-2.8-14.8v-.2a38.4 38.4 0 0 1 22.2-35c4.5-2 9.5-3 14.9-3 3.3 0 6.4.3 9.1.8a34.7 34.7 0 0 1 13.9 6.1c2 1.4 3.8 3 5.7 4.8l-5.7 6.1a46.6 46.6 0 0 0-10.1-7.2 27.3 27.3 0 0 0-12.9-2.8A27.7 27.7 0 0 0 448.5 43a33 33 0 0 0-2.1 11.8v.2c0 4.3.7 8.2 2.1 11.9a27.9 27.9 0 0 0 15 16c3.5 1.6 7.2 2.4 11.2 2.4 5 0 9.3-.9 13-2.8 3.6-1.8 7.2-4.4 10.7-7.8l5.4 5.3a37.5 37.5 0 0 1-29.4 12.8zM531.9 92.7c-2.5 0-5-.4-7.4-1.1-2.4-.7-4.6-1.8-6.5-3.2a16.4 16.4 0 0 1-4.6-5.2 14.3 14.3 0 0 1-1.7-7.3v-.2c0-2.9.6-5.5 1.7-7.7s2.7-4 4.8-5.5c2.1-1.5 4.5-2.6 7.3-3.3a34 34 0 0 1 9.4-1.2 60.3 60.3 0 0 1 16.6 2.3v-1.7c0-4.8-1.4-8.5-4.2-11-2.8-2.5-6.7-3.7-11.8-3.7a33.5 33.5 0 0 0-16.4 3.8l-2.4-6.6a42.4 42.4 0 0 1 19.7-4.5c7.7 0 13.5 2 17.5 6 3.8 3.8 5.7 9.1 5.7 15.9v33.1h-8v-8.1a21.6 21.6 0 0 1-12.9 8.4c-2.2.5-4.4.8-6.8.8zm1.7-6.5c2.5 0 4.8-.3 7-1s4.1-1.7 5.7-3a12.8 12.8 0 0 0 5.3-10.5v-5a47.3 47.3 0 0 0-15.8-2.3c-5 0-8.9 1-11.6 3a9.4 9.4 0 0 0-4.1 7.9v.2c0 1.7.4 3.2 1.1 4.6a9 9 0 0 0 3 3.4c1.3.9 2.7 1.6 4.3 2.1 1.5.3 3.3.6 5.1.6zM592.5 92.4c-2.2 0-4.2-.3-6.1-.8a12 12 0 0 1-8.1-7.5c-.8-1.9-1.2-4.3-1.2-7V44.6h-7.5v-7.2h7.5V21.1h8.1v16.3h17.2v7.2h-17.2v31.6c0 3.3.8 5.7 2.5 7 1.7 1.3 3.9 2 6.6 2a16.1 16.1 0 0 0 7.8-1.9v6.9a18.2 18.2 0 0 1-9.6 2.2z"/>
  <g fill-rule="evenodd" clip-rule="evenodd">
    <path fill="#008ccc" d="M39.9 59.1a7 7 0 0 1 4 9.3 7.2 7.2 0 0 1-9.3 4S29.2 69.9 26 68C5.5 55 7.9 36.2 10.4 24.9c1.1-5 4.8-15.6 4.8-15.6a7.2 7.2 0 0 1 9.3-4 7 7 0 0 1 4 9.3s-3.6 9.7-4.4 14.2c-1.3 7.1-4.1 19.3 10 27.4 3.7 2.1 5.8 2.9 5.8 2.9z"/>
    <path fill="#5f4894" d="M46.7 38.5A7.1 7.1 0 0 1 39 45c-4-.3-6.9-3.7-6.6-7.7 0 0 .8-5.9 1.7-9.4C40.5 4.5 59.1 1.1 70.7.2 75.8-.2 87 .2 87 .2c3.9.3 6.8 3.8 6.5 7.7-.3 4-3.7 6.9-7.7 6.6 0 0-10.4-.6-14.9-.1-7.1.9-19.6 1.7-23.1 17.7a56 56 0 0 0-1.1 6.4z"/>
    <path fill="#bb0e82" d="M68.5 38a7 7 0 0 1-8.7-5.1 7.1 7.1 0 0 1 5.1-8.7s5.8-1.1 9.5-1.4c24.2-1.7 33.4 14.8 38.1 25.5 2 4.7 5.3 15.4 5.3 15.4a7.2 7.2 0 0 1-5.1 8.7 7.1 7.1 0 0 1-8.7-5.1s-2.8-10-4.8-14.1C96 46.7 91.1 35.2 75 37c-4.3.3-6.5 1-6.5 1z"/>
    <path fill="#f57f29" d="M75.3 58.5a7.1 7.1 0 0 1 12-7.6s2.9 5.1 4.3 8.6c9.1 22.5-3.8 36.4-12.5 44a227 227 0 0 1-13 9.8 7.2 7.2 0 0 1-9.9-2.2 7.2 7.2 0 0 1 2.2-9.9s8.6-5.7 12-8.9c5.2-5 14.6-13.2 7.9-28-1.7-3.9-3-5.8-3-5.8z"/>
    <path fill="#2e953e" d="M57.5 71.8c2.5-3.1 7-3.6 10.1-1.1 3.1 2.5 3.6 7 1.1 10.1 0 0-4 4.4-6.8 6.8-18.4 15.9-35.6 8.2-45.7 2.4-4.5-2.5-13.5-9.2-13.5-9.2-3-2.5-3.5-7-1-10.1 2.5-3 7-3.5 10.1-1 0 0 8.2 6.3 12.3 8.4 6.4 3.3 17.2 9.6 29.1-1.5 2.9-3 4.3-4.8 4.3-4.8z"/>
  </g>
</svg>
